<svg fill="none" height="1027" viewBox="0 0 1660 1027" width="1660" xmlns="http://www.w3.org/2000/svg" xmlns:xlink="http://www.w3.org/1999/xlink"><filter id="a" color-interpolation-filters="sRGB" filterUnits="userSpaceOnUse" height="1260.33" width="1260.33" x="928.664" y="143.663"><feFlood flood-opacity="0" result="BackgroundImageFix"/><feBlend in="SourceGraphic" in2="BackgroundImageFix" mode="normal" result="shape"/><feGaussianBlur result="effect1_foregroundBlur_862_10294" stdDeviation="95"/></filter><filter id="b" color-interpolation-filters="sRGB" filterUnits="userSpaceOnUse" height="967.746" width="967.746" x="-419.53" y="-251.53"><feFlood flood-opacity="0" result="BackgroundImageFix"/><feBlend in="SourceGraphic" in2="BackgroundImageFix" mode="normal" result="shape"/><feGaussianBlur result="effect1_foregroundBlur_862_10294" stdDeviation="150"/></filter><filter id="c" color-interpolation-filters="sRGB" filterUnits="userSpaceOnUse" height="930.979" width="930.979" x="1213.07" y="394.073"><feFlood flood-opacity="0" result="BackgroundImageFix"/><feBlend in="SourceGraphic" in2="BackgroundImageFix" mode="normal" result="shape"/><feGaussianBlur result="effect1_foregroundBlur_862_10294" stdDeviation="95"/></filter><filter id="d" color-interpolation-filters="sRGB" filterUnits="userSpaceOnUse" height="1545" width="2259" x="-353" y="-417"><feFlood flood-opacity="0" result="BackgroundImageFix"/><feBlend in="SourceGraphic" in2="BackgroundImageFix" mode="normal" result="shape"/><feGaussianBlur result="effect1_foregroundBlur_862_10294" stdDeviation="196.5"/></filter><filter id="e" color-interpolation-filters="sRGB" filterUnits="userSpaceOnUse" height="1638.53" width="2137.22" x="-706.96" y="-423.888"><feFlood flood-opacity="0" result="BackgroundImageFix"/><feBlend in="SourceGraphic" in2="BackgroundImageFix" mode="normal" result="shape"/><feGaussianBlur result="effect1_foregroundBlur_862_10294" stdDeviation="196.5"/></filter><filter id="f" color-interpolation-filters="sRGB" filterUnits="userSpaceOnUse" height="1347.61" width="1398.61" x="-709" y="-61"><feFlood flood-opacity="0" result="BackgroundImageFix"/><feBlend in="SourceGraphic" in2="BackgroundImageFix" mode="normal" result="shape"/><feGaussianBlur result="effect1_foregroundBlur_862_10294" stdDeviation="150"/></filter><filter id="g" color-interpolation-filters="sRGB" filterUnits="userSpaceOnUse" height="1406" width="1388" x="663" y="-429"><feFlood flood-opacity="0" result="BackgroundImageFix"/><feBlend in="SourceGraphic" in2="BackgroundImageFix" mode="normal" result="shape"/><feGaussianBlur result="effect1_foregroundBlur_862_10294" stdDeviation="150"/></filter><path d="m.000122 0h1660v1027h-1660z" fill="#cabef3"/><g filter="url(#a)" opacity=".51"><circle cx="1558.83" cy="773.828" fill="#75c6ff" r="440.157" transform="matrix(.75665967 -.65380895 .65380895 .75665967 -126.609465 1207.480571)"/></g><g filter="url(#b)"><circle cx="64.3433" cy="232.343" fill="#8d58ff" r="183.87" transform="matrix(.75665967 -.65380895 .65380895 .75665967 -136.250613 98.606648)"/></g><g filter="url(#c)" opacity=".51"><circle cx="1678.56" cy="859.563" fill="#7488f1" r="275.485" transform="matrix(.75665967 -.65380895 .65380895 .75665967 -153.528638 1306.623901)"/></g><g filter="url(#d)"><path d="m375.275 190.8c-100.374-146.6237-265.339-158.9719-335.2748-146.8181 22.3864-115.2184 212.4098-49.10165 335.2748-49.10165 122.864 0 242.084 49.10165 358.181 238.70175 116.096 189.6 146.292 89.452 228.028 134.178s123.386 44.726 232.716 100.148c109.33 55.421 239.48 153.138 305.6 214.88 66.12 61.741-127.55 83.132-325.91-17.015-198.349-100.148-385.77-117.164-440.434-131.748-54.664-14.585-232.714-159.945-358.181-343.225z" fill="#6566ff"/></g><g filter="url(#e)"><path d="m-8.53391 426.599c-108.64809-92.137-257.49309-456.1122-304.93109-430.67711-12.339-95.43159 209.508 80.94001 234.5003 261.00011 12.7748 92.037 167.8869 77.243 298.4997 199.5 130.613 122.257 168.487-40.875 238.499-24.396 70.012 16.48 320.397 64.656 412.955 83.246s144.071 29.903 161.551 98.98c38.99 154.17-177.504 345.67-127.276 60.779 29.711-168.521-230.729-33.109-570.594-60.779-42.904-3.493-207.394-72.483-343.20391-187.653z" fill="#0d8cd3"/></g><g filter="url(#f)"><path d="m299.771 904.446c-69.2-237.2-352.9999-363.333-475-361-171.5-71-453.5-431.5 57-257.5 408.4 139.2 282.5 257.5 435.5 344.5 135.5 177 51.7 511.204-17.5 274z" fill="#6566ff"/></g><g filter="url(#g)" opacity=".4"><ellipse cx="1357" cy="274" fill="#8d58ff" rx="394" ry="403"/></g></svg>